<mxfile host="app.diagrams.net" modified="2023-02-13T08:00:16.768Z" agent="5.0 (Windows)" etag="uxxOAfjTDPHePvGrHO1L" version="20.8.20" type="github">
  <diagram name="Page-1" id="jGJ0YzobuGNS3g2AnMhp">
    <mxGraphModel dx="1050" dy="576" grid="1" gridSize="10" guides="1" tooltips="1" connect="1" arrows="1" fold="1" page="1" pageScale="1" pageWidth="850" pageHeight="1100" math="0" shadow="0">
      <root>
        <mxCell id="0" />
        <mxCell id="1" parent="0" />
      </root>
    </mxGraphModel>
  </diagram>
</mxfile>
